<?xml version="1.0" standalone="no"?><!DOCTYPE svg PUBLIC "-//W3C//DTD SVG 1.1//EN" "http://www.w3.org/Graphics/SVG/1.1/DTD/svg11.dtd"><svg height="750" node-id="1" sillyvg="true" template-height="750" template-width="750" version="1.1" viewBox="0 0 750 750" width="750" xmlns="http://www.w3.org/2000/svg" xmlns:xlink="http://www.w3.org/1999/xlink"><defs node-id="28"></defs><g node-id="131"><path d="M 462.10 236.80 L 462.10 236.80 C 384.80 236.20 321.00 295.10 314.00 370.70 C 295.50 351.60 269.60 339.60 240.90 339.40 L 240.90 339.40 C 184.10 339.00 137.70 384.70 137.30 441.50 L 136.50 542.90 L 312.10 544.20 L 342.20 544.40 L 607.30 546.40 L 608.50 385.50 C 609.20 304.00 543.60 237.40 462.10 236.80 Z" fill="#b3b3b3" fill-opacity="0.1" fill-rule="nonzero" group-id="1" node-id="34" stroke="none" target-height="310.2" target-width="472.7" target-x="136.5" target-y="236.2"></path></g><g node-id="132"><path d="M 216.90 227.40 C 213.50 227.40 210.40 228.50 207.90 230.30 C 208.10 229.30 208.20 228.30 208.20 227.30 C 208.30 219.00 201.60 212.20 193.20 212.10 C 184.80 212.00 178.10 218.70 178.00 227.10 C 178.00 227.40 178.00 227.70 178.00 228.00 C 176.40 227.40 174.60 227.00 172.80 227.00 C 164.50 226.90 157.70 233.60 157.60 242.00 C 157.50 250.20 164.00 256.90 172.10 257.20 L 172.10 257.20 L 216.70 257.50 C 225.00 257.60 231.80 250.90 231.90 242.50 C 232.00 234.10 225.20 227.50 216.90 227.40 Z" fill="#b3b3b3" fill-opacity="0.3" fill-rule="nonzero" group-id="2" node-id="39" stroke="none" target-height="45.600006" target-width="74.5" target-x="157.5" target-y="212"></path></g><g node-id="133"><path d="M 596.40 194.20 C 593.00 194.20 589.90 195.30 587.40 197.10 C 587.60 196.10 587.70 195.10 587.70 194.10 C 587.80 185.80 581.10 179.00 572.70 178.90 C 564.30 178.80 557.60 185.50 557.50 193.90 C 557.50 194.20 557.50 194.50 557.50 194.80 C 555.90 194.20 554.10 193.80 552.30 193.80 C 544.00 193.70 537.20 200.40 537.10 208.80 C 537.00 217.00 543.50 223.70 551.60 224.00 L 551.60 224.00 L 596.20 224.30 C 604.50 224.40 611.30 217.70 611.40 209.30 C 611.50 200.90 604.70 194.30 596.40 194.20 Z" fill="#b3b3b3" fill-opacity="0.3" fill-rule="nonzero" group-id="3" node-id="44" stroke="none" target-height="45.59999" target-width="74.5" target-x="537" target-y="178.8"></path></g><g node-id="134"><g node-id="136"><path d="M 496.90 497.50 C 494.80 497.50 493.20 499.10 493.20 501.20 C 493.20 502.70 494.00 503.90 495.20 504.50 L 494.70 569.60 L 498.20 569.60 L 498.70 504.30 C 499.80 503.70 500.50 502.50 500.50 501.20 C 500.60 499.10 499.00 497.60 496.90 497.50 Z" fill="#b3b3b3" fill-opacity="0.1" fill-rule="nonzero" group-id="4,6" node-id="51" stroke="none" target-height="72.099976" target-width="7.399994" target-x="493.2" target-y="497.5"></path><path d="M 572.30 501.70 C 572.30 499.80 570.70 498.10 568.60 498.00 C 566.50 498.00 564.90 499.60 564.90 501.70 C 564.90 503.10 565.70 504.30 566.80 504.90 L 566.30 570.10 L 569.80 570.10 L 570.30 504.90 C 571.50 504.30 572.20 503.10 572.30 501.70 Z" fill="#b3b3b3" fill-opacity="0.1" fill-rule="nonzero" group-id="4,6" node-id="53" stroke="none" target-height="72.099976" target-width="7.3999634" target-x="564.9" target-y="498"></path></g><g node-id="137"><path d="M 484.78 526.29 L 484.90 509.79 L 577.20 510.48 L 577.08 526.98 Z" fill="#b3b3b3" fill-opacity="0.1" fill-rule="nonzero" group-id="4,7" node-id="58" stroke="none" target-height="17.189972" target-width="92.42001" target-x="484.78" target-y="509.79"></path></g><g node-id="138"><path d="M 495.40 509.80 L 495.20 510.10 L 485.50 526.30 L 484.80 526.30 L 484.90 509.80 Z" fill="#b3b3b3" fill-opacity="0.1" fill-rule="nonzero" group-id="4,8" node-id="63" stroke="none" target-height="16.5" target-width="10.600006" target-x="484.8" target-y="509.8"></path></g><g node-id="139"><path d="M 518.70 510.00 L 508.80 526.50 L 496.30 526.40 L 500.20 519.80 L 506.00 509.90 Z" fill="#b3b3b3" fill-opacity="0.1" fill-rule="nonzero" group-id="4,9" node-id="68" stroke="none" target-height="16.600006" target-width="22.400024" target-x="496.3" target-y="509.9"></path></g><g node-id="140"><path d="M 542.00 510.20 L 532.10 526.60 L 519.60 526.50 L 529.30 510.10 Z" fill="#b3b3b3" fill-opacity="0.1" fill-rule="nonzero" group-id="4,10" node-id="73" stroke="none" target-height="16.49997" target-width="22.400024" target-x="519.6" target-y="510.1"></path></g><g node-id="141"><path d="M 565.30 510.40 L 555.50 526.80 L 542.90 526.70 L 552.70 510.30 Z" fill="#b3b3b3" fill-opacity="0.1" fill-rule="nonzero" group-id="4,11" node-id="78" stroke="none" target-height="16.5" target-width="22.399963" target-x="542.9" target-y="510.3"></path></g><g node-id="142"><path d="M 577.20 510.40 L 577.10 527.00 L 566.20 526.90 L 576.00 510.40 Z" fill="#b3b3b3" fill-opacity="0.1" fill-rule="nonzero" group-id="4,12" node-id="83" stroke="none" target-height="16.600006" target-width="11" target-x="566.2" target-y="510.4"></path></g><g node-id="143"><path d="M 484.58 551.81 L 484.70 535.31 L 577.00 536.00 L 576.88 552.50 Z" fill="#b3b3b3" fill-opacity="0.1" fill-rule="nonzero" group-id="4,13" node-id="88" stroke="none" target-height="17.190002" target-width="92.42001" target-x="484.58" target-y="535.31"></path></g><g node-id="144"><path d="M 495.20 535.30 L 495.00 535.60 L 485.30 551.80 L 484.60 551.80 L 484.70 535.30 Z" fill="#b3b3b3" fill-opacity="0.1" fill-rule="nonzero" group-id="4,14" node-id="93" stroke="none" target-height="16.5" target-width="10.600006" target-x="484.6" target-y="535.3"></path></g><g node-id="145"><path d="M 518.50 535.50 L 508.60 552.00 L 496.10 551.90 L 500.00 545.30 L 505.80 535.40 Z" fill="#b3b3b3" fill-opacity="0.1" fill-rule="nonzero" group-id="4,15" node-id="98" stroke="none" target-height="16.599976" target-width="22.399994" target-x="496.1" target-y="535.4"></path></g><g node-id="146"><path d="M 541.80 535.70 L 531.90 552.10 L 519.40 552.00 L 529.10 535.60 Z" fill="#b3b3b3" fill-opacity="0.1" fill-rule="nonzero" group-id="4,16" node-id="103" stroke="none" target-height="16.5" target-width="22.399963" target-x="519.4" target-y="535.6"></path></g><g node-id="147"><path d="M 565.10 535.90 L 555.40 552.30 L 542.70 552.20 L 552.50 535.80 Z" fill="#b3b3b3" fill-opacity="0.1" fill-rule="nonzero" group-id="4,17" node-id="108" stroke="none" target-height="16.5" target-width="22.399963" target-x="542.7" target-y="535.8"></path></g><g node-id="148"><path d="M 577.00 536.00 L 576.90 552.50 L 566.00 552.40 L 575.80 536.00 Z" fill="#b3b3b3" fill-opacity="0.1" fill-rule="nonzero" group-id="4,18" node-id="113" stroke="none" target-height="16.5" target-width="11" target-x="566" target-y="536"></path></g><g node-id="149"><path d="M 577.10 527.00 C 577.10 527.00 577.10 526.90 577.10 526.70 L 577.10 525.80 C 577.10 525.10 577.10 524.00 577.10 522.60 C 577.10 519.80 577.20 515.70 577.20 510.40 L 577.30 510.50 L 485.00 510.00 L 485.00 510.00 L 485.10 509.90 C 485.10 515.50 485.00 521.10 485.00 526.40 L 484.90 526.30 L 550.70 526.90 L 570.20 527.00 L 575.50 527.00 L 575.50 527.00 L 570.20 527.00 L 550.70 526.90 L 484.90 526.60 L 484.60 526.60 L 484.70 509.80 L 484.80 509.80 L 577.10 510.60 L 577.20 510.60 L 577.20 510.70 C 577.20 516.00 577.10 520.10 577.10 522.90 C 577.10 524.40 577.10 525.40 577.10 526.10 L 577.10 526.80 C 577.10 526.80 577.10 527.00 577.10 527.00 Z" fill="#b3b3b3" fill-opacity="0.1" fill-rule="nonzero" group-id="4,19" node-id="118" stroke="none" target-height="17.200012" target-width="92.69998" target-x="484.6" target-y="509.8"></path></g><path d="M 576.90 552.50 C 576.90 552.50 576.90 552.40 576.90 552.20 L 576.90 551.30 C 576.90 550.60 576.90 549.50 576.90 548.10 C 576.90 545.30 577.00 541.20 577.00 535.90 L 577.10 536.00 L 484.80 535.50 L 484.80 535.50 L 484.90 535.40 C 484.90 541.00 484.80 546.60 484.80 551.90 L 484.70 551.80 L 550.50 552.40 L 570.00 552.50 L 575.30 552.50 L 575.30 552.50 L 570.00 552.50 L 550.50 552.40 L 484.70 552.10 L 484.40 552.10 L 484.50 535.40 L 484.60 535.40 L 576.90 536.20 L 577.00 536.20 L 577.00 536.30 C 577.00 541.60 576.90 545.70 576.90 548.50 C 576.90 550.00 576.90 551.00 576.90 551.70 L 576.90 552.40 C 576.90 552.30 576.90 552.50 576.90 552.50 Z" fill="#b3b3b3" fill-opacity="0.1" fill-rule="nonzero" group-id="4,20" node-id="123" stroke="none" target-height="17.099976" target-width="92.69998" target-x="484.4" target-y="535.4"></path></g><path d="M 263.00 439.40 L 208.90 506.90 L 210.20 338.90 C 210.20 333.70 214.50 329.40 219.80 329.50 L 310.30 330.20 L 281.10 393.50 L 341.90 392.00 L 329.50 435.20 L 310.00 459.60 L 275.70 437.30 C 271.40 434.70 266.00 435.60 263.00 439.40 Z M 466.50 340.90 L 465.30 507.50 L 363.60 416.40 L 380.10 384.90 L 330.60 377.00 L 344.50 330.50 L 457.10 331.30 C 462.30 331.30 466.60 335.60 466.50 340.90 Z M 440.00 387.30 C 440.10 376.80 431.60 368.20 421.10 368.20 C 410.60 368.20 402.00 376.50 402.00 387.00 C 401.90 397.50 410.40 406.10 420.90 406.10 C 431.30 406.20 439.90 397.80 440.00 387.30 Z M 316.20 480.80 C 313.30 482.30 309.60 482.20 306.70 480.30 L 272.40 458.00 L 223.10 519.50 L 304.90 520.10 L 316.20 480.80 Z M 353.80 435.10 L 309.20 520.20 L 452.20 521.30 L 354.70 434.00 L 353.80 435.10 Z" fill="#b3b3b3" fill-opacity="0.35" fill-rule="nonzero" group-id="5" node-id="129" stroke="none" target-height="191.9" target-width="257.7" target-x="208.9" target-y="329.4"></path></svg>